#!OML:ASF H:\GeneralSubjects\Female5\Project 1\Capture day 1\Session 1\Female5.ASF
:FULLY-SPECIFIED
:DEGREES
330
root -8.51306 15.7936 1.28588 162.206 -82.4651 -149.762
lowerback 6.08728 1.09564 0.982571
upperback -8.96741 1.72816 3.63784
thorax -13.2941 0.83722 3.17574
lowerneck -12.3079 -1.57108 -4.10816
upperneck 49.1816 -6.96311 1.97923
head 23.4272 -4.39026 -0.154786
rclavicle -2.83268e-015 -8.74653e-015
rhumerus -41.8608 18.9238 -77.8654
rradius 26.4844
rwrist -10.2506
rhand -18.1627 -24.9798
rfingers 7.12502
rthumb 8.11332 -54.8041
lclavicle -2.83268e-015 -8.74653e-015
lhumerus -48.0154 2.7875 81.0183
lradius 22.4585
lwrist -13.5981
lhand -22.796 34.5077
lfingers 7.12502
lthumb 3.64014 64.4564
rfemur -19.932 16.1262 29.3185
rtibia -0.241719
rfoot -39.3032 -36.584
rtoes 28.3104
lfemur 8.97743 -29.0259 -33.3848
ltibia 0.611096
lfoot -35.7367 24.429
ltoes -62.6084
331
root -8.63473 15.7829 1.22342 160.836 -82.1941 -148.315
lowerback 5.96473 1.10161 1.25044
upperback -9.04688 1.77497 3.83118
thorax -13.3143 0.839925 3.23478
lowerneck -12.1793 -1.74422 -4.38336
upperneck 49.2246 -7.44786 2.36302
head 23.5264 -4.59449 0.000214665
rclavicle -7.55382e-015 -4.37326e-014
rhumerus -41.9971 19.3555 -77.9178
rradius 26.3694
rwrist -10.2965
rhand -18.2478 -24.9169
rfingers 7.12502
rthumb 8.03122 -54.7443
lclavicle -7.55382e-015 -4.37326e-014
lhumerus -47.7365 2.76215 80.9213
lradius 22.1226
lwrist -14.5452
lhand -23.4743 34.1779
lfingers 7.12502
lthumb 2.98506 64.1368
rfemur -19.8061 14.5735 30.4602
rtibia 0.494476
rfoot -37.341 -35.7855
rtoes 26.9045
lfemur 8.74566 -27.6975 -32.575
ltibia 1.28461
lfoot -35.4515 23.4429
ltoes -63.3748
332
root -8.75382 15.7709 1.16088 159.221 -81.9208 -146.638
lowerback 5.8652 1.06143 1.67196
upperback -9.01719 1.77463 3.97401
thorax -13.2096 0.803128 3.15555
lowerneck -12.3452 -1.95082 -4.50095
upperneck 49.2097 -7.91059 2.58393
head 23.6653 -4.76138 0.0314344
rclavicle -1.59028e-015 8.74653e-015
rhumerus -41.7821 19.5151 -77.8916
rradius 26.3234
rwrist -10.1064
rhand -18.1433 -25.1223
rfingers 7.12502
rthumb 8.13206 -54.9459
lclavicle -1.59028e-015 8.74653e-015
lhumerus -46.883 2.95962 80.6491
lradius 21.4746
lwrist -15.6527
lhand -23.5335 34.2426
lfingers 7.12502
lthumb 2.92793 64.2023
rfemur -19.7911 13.3023 31.527
rtibia 1.47097
rfoot -36.0699 -34.5536
rtoes 25.9104
lfemur 8.53988 -26.3778 -31.69
ltibia 2.02895
lfoot -35.3391 22.168
ltoes -63.4437
333
root -8.87108 15.7611 1.10429 158.334 -81.6483 -145.712
lowerback 5.91354 0.99227 2.14813
upperback -8.97072 1.73873 3.98629
thorax -13.1689 0.738433 2.90619
lowerneck -12.7754 -2.12816 -4.41285
upperneck 49.189 -8.37307 2.80114
head 23.8995 -4.8765 0.00980047
rclavicle -1.6201e-014 3.73715e-014
rhumerus -41.4256 19.4802 -78.0082
rradius 26.322
rwrist -9.9476
rhand -18.3474 -24.9295
rfingers 7.12502
rthumb 7.93501 -54.7606
lclavicle -1.6201e-014 3.73715e-014
lhumerus -45.7921 3.10075 80.2847
lradius 20.7726
lwrist -16.4341
lhand -23.6667 34.6718
lfingers 7.12502
lthumb 2.79929 64.6331
rfemur -19.4639 12.2492 32.4089
rtibia 1.80899
rfoot -34.781 -33.6332
rtoes 25.3246
lfemur 8.33617 -24.9295 -30.896
ltibia 2.86784
lfoot -35.095 20.7175
ltoes -63.0906
334
root -8.9888 15.7576 1.05068 157.538 -81.3669 -144.88
lowerback 5.93064 0.924257 2.65324
upperback -8.99268 1.70434 3.99119
thorax -13.1898 0.669605 2.6353
lowerneck -12.9601 -2.2558 -4.43614
upperneck 49.1574 -8.77442 3.10005
head 24.0376 -4.99418 0.0778046
rclavicle -7.70291e-015 1.82882e-014
rhumerus -41.2545 19.4305 -78.1626
rradius 26.522
rwrist -9.79821
rhand -18.6324 -24.5172
rfingers 7.12502
rthumb 7.65994 -54.3585
lclavicle -7.70291e-015 1.82882e-014
lhumerus -44.8554 3.64004 79.7161
lradius 20.2448
lwrist -17.407
lhand -24.2413 34.9304
lfingers 7.12502
lthumb 2.24427 64.8984
rfemur -19.0644 11.5466 33.181
rtibia 2.00435
rfoot -34.0243 -32.9254
rtoes 24.3618
lfemur 8.11575 -23.4871 -30.1123
ltibia 3.72593
lfoot -34.7454 19.432
ltoes -63.0924
335
root -9.09868 15.7609 0.998586 155.796 -81.0381 -143.072
lowerback 5.95384 0.852352 3.3316
upperback -9.06909 1.69008 4.0656
thorax -13.2804 0.594178 2.34405
lowerneck -12.8846 -2.35612 -4.6405
upperneck 49.0809 -9.1647 3.56874
head 24.0647 -5.13698 0.290324
rclavicle -1.35174e-014 4.77083e-015
rhumerus -41.2199 19.552 -78.3463
rradius 26.869
rwrist -9.84558
rhand -18.6878 -24.4324
rfingers 7.12502
rthumb 7.60647 -54.2756
lclavicle -1.35174e-014 4.77083e-015
lhumerus -43.9241 4.62113 79.0266
lradius 19.7624
lwrist -18.6701
lhand -24.4557 35.1536
lfingers 7.12502
lthumb 2.03724 65.1236
rfemur -18.7671 11.1149 34.0298
rtibia 2.31846
rfoot -33.7366 -32.3722
rtoes 23.0171
lfemur 7.77108 -22.2496 -29.1144
ltibia 4.71288
lfoot -34.2585 18.5269
ltoes -63.4376
336
root -9.20343 15.7683 0.948983 154.485 -80.727 -141.715
lowerback 5.99646 0.780459 3.95307
upperback -9.11636 1.6712 4.13505
thorax -13.352 0.522318 2.07974
lowerneck -12.9523 -2.46304 -4.77529
upperneck 49.082 -9.52304 3.87379
head 24.2074 -5.26891 0.395672
rclavicle -1.47101e-014 -2.70347e-014
rhumerus -41.0786 19.8919 -78.6157
rradius 27.1288
rwrist -10.3042
rhand -18.6401 -24.6951
rfingers 7.12502
rthumb 7.65254 -54.5366
lclavicle -1.47101e-014 -2.70347e-014
lhumerus -42.9092 5.61908 78.5484
lradius 19.4299
lwrist -19.6772
lhand -24.4666 35.8818
lfingers 7.12502
lthumb 2.02671 65.8519
rfemur -18.539 10.6936 34.7783
rtibia 2.74681
rfoot -33.4923 -31.7337
rtoes 22.1686
lfemur 7.22867 -20.6741 -28.0348
ltibia 5.91449
lfoot -33.0553 17.9263
ltoes -64.0869
337
root -9.31447 15.7752 0.89896 155.112 -80.5515 -142.373
lowerback 5.94673 0.722016 4.15878
upperback -9.12073 1.61154 4.15972
thorax -13.3223 0.473172 2.00292
lowerneck -12.8753 -2.60266 -4.85823
upperneck 48.9376 -9.80755 4.01848
head 24.0894 -5.37756 0.429523
rclavicle 1.14301e-015 2.38542e-015
rhumerus -40.8205 20.2462 -78.7509
rradius 27.3682
rwrist -10.7981
rhand -18.5602 -24.9162
rfingers 7.12502
rthumb 7.7297 -54.7549
lclavicle 1.14301e-015 2.38542e-015
lhumerus -41.9211 6.34413 78.5247
lradius 19.4143
lwrist -20.1267
lhand -25.1481 36.2835
lfingers 7.12502
lthumb 1.3685 66.2588
rfemur -17.9883 10.1903 35.1536
rtibia 2.64944
rfoot -32.8135 -31.1986
rtoes 21.2976
lfemur 6.63684 -18.5858 -27.2463
ltibia 7.24604
lfoot -31.3938 17.3021
ltoes -65.1615
338
root -9.42602 15.784 0.850191 156.472 -80.3974 -143.806
lowerback 5.97845 0.673997 4.20542
upperback -9.185 1.55242 4.15639
thorax -13.4171 0.436971 1.98663
lowerneck -12.766 -2.68473 -5.01659
upperneck 48.9089 -10.0689 4.24442
head 24.1045 -5.49486 0.525114
rclavicle 8.15017e-015 1.03368e-014
rhumerus -40.6805 20.5769 -78.8716
rradius 27.6257
rwrist -11.1459
rhand -18.3742 -24.8204
rfingers 7.12502
rthumb 7.90914 -54.6524
lclavicle 8.15017e-015 1.03368e-014
lhumerus -41.0593 6.23395 79.1275
lradius 19.7171
lwrist -19.4904
lhand -25.7206 36.676
lfingers 7.12502
lthumb 0.815645 66.6542
rfemur -17.3556 9.87868 35.354
rtibia 2.48442
rfoot -32.2634 -30.7198
rtoes 20.4202
lfemur 6.03993 -16.5109 -26.6243
ltibia 8.77602
lfoot -30.2172 15.875
ltoes -65.8424
339
root -9.53292 15.7979 0.802737 157.303 -80.1704 -144.724
lowerback 6.0054 0.625041 4.36667
upperback -9.19295 1.50612 4.16808
thorax -13.4411 0.397813 1.91851
lowerneck -12.8076 -2.75123 -5.19708
upperneck 48.9013 -10.3166 4.516
head 24.2228 -5.60068 0.647661
rclavicle -7.95139e-016 -2.54444e-014
rhumerus -40.4437 20.9335 -79.0223
rradius 27.8745
rwrist -11.4727
rhand -18.2086 -24.6242
rfingers 7.12502
rthumb 8.06897 -54.4502
lclavicle -7.95139e-016 -2.54444e-014
lhumerus -40.1462 5.45202 80.2154
lradius 20.3196
lwrist -18.0198
lhand -25.7297 37.0796
lfingers 7.12502
lthumb 0.806767 67.0578
rfemur -16.6358 9.90778 35.6135
rtibia 2.22821
rfoot -31.8534 -30.4056
rtoes 20.622
lfemur 5.34582 -14.484 -25.8848
ltibia 10.6831
lfoot -29.3232 13.6199
ltoes -65.9174
340
root -9.63394 15.8119 0.753888 158.405 -79.9335 -145.873
lowerback 5.95182 0.592887 4.46767
upperback -9.15427 1.46801 4.17322
thorax -13.3598 0.370415 1.87265
lowerneck -12.8829 -2.85959 -5.17718
upperneck 48.7852 -10.4911 4.51806
head 24.1539 -5.6559 0.600102
rclavicle 1.28713e-014 5.56597e-015
rhumerus -40.0682 21.1357 -79.0354
rradius 28.1769
rwrist -11.6706
rhand -18.2347 -24.3746
rfingers 7.12502
rthumb 8.04385 -54.2015
lclavicle 1.28713e-014 5.56597e-015
lhumerus -39.1627 4.28811 81.5975
lradius 21.1763
lwrist -16.1033
lhand -25.9448 36.8909
lfingers 7.12502
lthumb 0.599077 66.8698
rfemur -15.9402 10.4201 35.7577
rtibia 1.92349
rfoot -31.8139 -30.4095
rtoes 21.2393
lfemur 4.40189 -12.3007 -25.0522
ltibia 12.8936
lfoot -28.0426 11.1317
ltoes -65.7097
